<svg id="圖層_1" data-name="圖層 1" xmlns="http://www.w3.org/2000/svg" viewBox="0 0 34 34"><defs><style>.cls-1{fill:none;stroke:#000;stroke-linecap:round;stroke-miterlimit:10;}</style></defs><path class="cls-1" d="M23.84,24.78h.57A5.49,5.49,0,0,0,30,19.37h0a5.41,5.41,0,0,0-3.43-5,5.86,5.86,0,0,0,.07-.94,6,6,0,0,0-6.09-5.94,6.14,6.14,0,0,0-4.93,2.44,4.67,4.67,0,0,0-2-.45A4.54,4.54,0,0,0,9,14v0A5.47,5.47,0,0,0,4,19.37H4a5.49,5.49,0,0,0,5.56,5.41h.77"/><line class="cls-1" x1="17" y1="17.06" x2="17" y2="26.51"/><polyline class="cls-1" points="12.72 20.75 17 17.06 21.28 20.75"/></svg>