<?xml version="1.0" encoding="utf-8"?>
<!-- Generator: Adobe Illustrator 26.0.3, SVG Export Plug-In . SVG Version: 6.00 Build 0)  -->
<svg version="1.1" id="圖層_1" xmlns="http://www.w3.org/2000/svg" xmlns:xlink="http://www.w3.org/1999/xlink" x="0px" y="0px"
	 viewBox="0 0 400 300" style="enable-background:new 0 0 400 300;" xml:space="preserve">
<style type="text/css">
	.st0{fill:#CCCCCC;}
</style>
<g>
	<path class="st0" d="M145.6,131.5c0,0.1,0,0.2-0.1,0.3s-0.2,0.1-0.3,0.2s-0.3,0.1-0.5,0.1s-0.5,0.1-0.9,0.1c-0.3,0-0.6,0-0.8-0.1
		s-0.4-0.1-0.6-0.1s-0.2-0.1-0.3-0.2s-0.1-0.2-0.1-0.3V106c0-0.1,0-0.2,0.1-0.3s0.2-0.1,0.3-0.2c0.1,0,0.3-0.1,0.6-0.1
		c0.2,0,0.5-0.1,0.8-0.1c0.3,0,0.6,0,0.9,0.1c0.2,0,0.4,0.1,0.5,0.1s0.2,0.1,0.3,0.2s0.1,0.2,0.1,0.3L145.6,131.5L145.6,131.5z"/>
	<path class="st0" d="M181.5,131.5c0,0.1,0,0.2-0.1,0.3s-0.2,0.1-0.3,0.2c-0.1,0-0.3,0.1-0.5,0.1s-0.5,0.1-0.9,0.1
		c-0.3,0-0.6,0-0.8-0.1s-0.4-0.1-0.5-0.1s-0.2-0.1-0.3-0.2c-0.1-0.1-0.1-0.2-0.1-0.3v-23.1h0l-9.4,23.2c0,0.1-0.1,0.2-0.2,0.2
		s-0.2,0.1-0.3,0.2c-0.1,0-0.3,0.1-0.5,0.1c-0.2,0-0.4,0-0.7,0c-0.3,0-0.5,0-0.7,0s-0.4-0.1-0.5-0.1c-0.1,0-0.2-0.1-0.3-0.2
		s-0.1-0.1-0.2-0.2l-8.9-23.2h0v23.1c0,0.1,0,0.2-0.1,0.3s-0.2,0.1-0.3,0.2c-0.1,0-0.3,0.1-0.5,0.1s-0.5,0.1-0.9,0.1s-0.6,0-0.8-0.1
		s-0.4-0.1-0.5-0.1s-0.2-0.1-0.3-0.2c0-0.1-0.1-0.2-0.1-0.3v-24.4c0-0.6,0.2-1,0.5-1.2s0.6-0.4,1-0.4h2.2c0.4,0,0.8,0,1.2,0.1
		s0.6,0.2,0.9,0.4s0.5,0.4,0.6,0.7s0.3,0.6,0.4,1l7.6,19.2h0.1l7.9-19.2c0.2-0.4,0.3-0.8,0.5-1s0.4-0.5,0.6-0.7
		c0.2-0.2,0.5-0.3,0.7-0.4s0.6-0.1,0.9-0.1h2.3c0.2,0,0.4,0,0.6,0.1c0.2,0.1,0.3,0.2,0.5,0.3c0.1,0.1,0.2,0.3,0.3,0.5
		c0.1,0.2,0.1,0.4,0.1,0.7L181.5,131.5L181.5,131.5z"/>
	<path class="st0" d="M208.4,130.8c0.1,0.3,0.2,0.5,0.2,0.7c0,0.2,0,0.3-0.2,0.4s-0.3,0.2-0.5,0.2c-0.3,0-0.6,0-1,0s-0.8,0-1,0
		c-0.3,0-0.4-0.1-0.6-0.1c-0.1,0-0.2-0.1-0.3-0.2c-0.1-0.1-0.1-0.2-0.2-0.3l-2.3-6.5h-11l-2.2,6.4c0,0.1-0.1,0.2-0.2,0.3
		c-0.1,0.1-0.2,0.2-0.3,0.2c-0.1,0.1-0.3,0.1-0.6,0.1c-0.2,0-0.6,0-0.9,0c-0.4,0-0.7,0-1-0.1s-0.4-0.1-0.5-0.2
		c-0.1-0.1-0.2-0.2-0.1-0.4c0-0.2,0.1-0.4,0.2-0.7l8.9-24.7c0.1-0.2,0.1-0.3,0.2-0.4s0.2-0.2,0.4-0.2c0.2-0.1,0.4-0.1,0.7-0.1
		c0.3,0,0.6,0,1,0c0.4,0,0.8,0,1.1,0c0.3,0,0.5,0.1,0.7,0.1s0.3,0.1,0.4,0.2s0.2,0.2,0.2,0.4L208.4,130.8z M197,109L197,109
		l-4.6,13.2h9.2L197,109z"/>
	<path class="st0" d="M232.5,109.1c0,0.3,0,0.5,0,0.7s-0.1,0.4-0.1,0.5s-0.1,0.2-0.2,0.3s-0.2,0.1-0.3,0.1c-0.2,0-0.4-0.1-0.8-0.4
		s-0.9-0.5-1.5-0.9s-1.4-0.6-2.3-0.9c-0.9-0.3-2-0.4-3.2-0.4c-1.5,0-2.8,0.3-3.9,0.8s-2.1,1.3-3,2.2s-1.4,2.1-1.9,3.4
		c-0.4,1.3-0.6,2.7-0.6,4.2c0,1.7,0.2,3.2,0.7,4.5c0.5,1.3,1.1,2.4,2,3.3s1.8,1.6,3,2.1c1.2,0.5,2.4,0.7,3.8,0.7
		c0.8,0,1.7-0.1,2.5-0.3c0.8-0.2,1.6-0.5,2.3-0.9v-7.7h-6.2c-0.2,0-0.4-0.1-0.5-0.3c-0.1-0.2-0.2-0.6-0.2-1.1c0-0.3,0-0.5,0-0.7
		c0-0.2,0.1-0.3,0.1-0.5c0.1-0.1,0.1-0.2,0.2-0.3s0.2-0.1,0.3-0.1h8.4c0.2,0,0.3,0,0.5,0.1s0.3,0.1,0.4,0.2s0.2,0.3,0.3,0.5
		s0.1,0.4,0.1,0.7v10.1c0,0.4-0.1,0.7-0.2,0.9s-0.4,0.5-0.8,0.7s-0.9,0.4-1.5,0.6s-1.3,0.4-1.9,0.6s-1.3,0.3-2,0.4s-1.4,0.1-2,0.1
		c-2.1,0-3.9-0.3-5.5-1c-1.6-0.6-3-1.5-4.1-2.7s-2-2.6-2.6-4.2s-0.9-3.5-0.9-5.5c0-2.1,0.3-4,1-5.7c0.6-1.7,1.5-3.2,2.7-4.4
		c1.2-1.2,2.5-2.1,4.2-2.8s3.4-1,5.4-1c1,0,2,0.1,2.9,0.3s1.7,0.4,2.4,0.6c0.7,0.2,1.3,0.5,1.7,0.8c0.5,0.3,0.8,0.5,1,0.7
		s0.3,0.4,0.4,0.6S232.5,108.7,232.5,109.1z"/>
	<path class="st0" d="M253.8,130.6c0,0.2,0,0.5,0,0.6c0,0.2-0.1,0.3-0.1,0.5s-0.1,0.2-0.2,0.3c-0.1,0.1-0.2,0.1-0.3,0.1h-12.7
		c-0.3,0-0.6-0.1-0.9-0.3s-0.4-0.6-0.4-1.1v-23.7c0-0.5,0.1-0.9,0.4-1.1s0.6-0.3,0.9-0.3H253c0.1,0,0.2,0,0.3,0.1
		c0.1,0.1,0.2,0.1,0.2,0.3s0.1,0.3,0.1,0.5c0,0.2,0.1,0.4,0.1,0.7c0,0.2,0,0.5-0.1,0.6s-0.1,0.3-0.1,0.5c-0.1,0.1-0.1,0.2-0.2,0.3
		c-0.1,0.1-0.2,0.1-0.3,0.1h-10.4v8.3h8.9c0.1,0,0.2,0,0.3,0.1c0.1,0.1,0.2,0.1,0.2,0.3c0.1,0.1,0.1,0.3,0.1,0.5s0,0.4,0,0.7
		c0,0.2,0,0.5,0,0.6s-0.1,0.3-0.1,0.4c-0.1,0.1-0.1,0.2-0.2,0.2c-0.1,0-0.2,0.1-0.3,0.1h-8.9v9.5h10.5c0.1,0,0.2,0,0.3,0.1
		c0.1,0.1,0.2,0.1,0.2,0.3s0.1,0.3,0.1,0.5C253.8,130.1,253.8,130.3,253.8,130.6z"/>
	<path class="st0" d="M174.7,181.9c0,0.1,0,0.2-0.1,0.3s-0.2,0.1-0.3,0.2c-0.1,0-0.3,0.1-0.5,0.1s-0.5,0.1-0.8,0.1
		c-0.4,0-0.6,0-0.9-0.1c-0.2,0-0.4-0.1-0.5-0.1s-0.2-0.1-0.3-0.2s-0.1-0.2-0.1-0.3v-11.8h-12.1v11.8c0,0.1,0,0.2-0.1,0.3
		s-0.2,0.1-0.3,0.2c-0.1,0-0.3,0.1-0.5,0.1s-0.5,0.1-0.9,0.1c-0.3,0-0.6,0-0.8-0.1s-0.4-0.1-0.6-0.1c-0.1,0-0.2-0.1-0.3-0.2
		s-0.1-0.2-0.1-0.3v-25.5c0-0.1,0-0.2,0.1-0.3s0.2-0.1,0.3-0.2c0.1,0,0.3-0.1,0.6-0.1s0.5-0.1,0.8-0.1c0.3,0,0.6,0,0.9,0.1
		c0.2,0,0.4,0.1,0.5,0.1s0.2,0.1,0.3,0.2s0.1,0.2,0.1,0.3V167h12.1v-10.6c0-0.1,0-0.2,0.1-0.3s0.2-0.1,0.3-0.2
		c0.1,0,0.3-0.1,0.5-0.1s0.5-0.1,0.9-0.1c0.3,0,0.6,0,0.8,0.1c0.2,0,0.4,0.1,0.5,0.1s0.2,0.1,0.3,0.2s0.1,0.2,0.1,0.3V181.9z"/>
	<path class="st0" d="M196.5,181c0,0.2,0,0.5,0,0.6c0,0.2-0.1,0.3-0.1,0.5s-0.1,0.2-0.2,0.3c-0.1,0.1-0.2,0.1-0.3,0.1H183
		c-0.3,0-0.6-0.1-0.9-0.3s-0.4-0.6-0.4-1.1v-23.7c0-0.5,0.1-0.9,0.4-1.1s0.6-0.3,0.9-0.3h12.6c0.1,0,0.2,0,0.3,0.1s0.2,0.1,0.2,0.3
		s0.1,0.3,0.1,0.5s0.1,0.4,0.1,0.7c0,0.2,0,0.5-0.1,0.6c0,0.2-0.1,0.3-0.1,0.5c-0.1,0.1-0.1,0.2-0.2,0.3s-0.2,0.1-0.3,0.1h-10.4v8.3
		h8.9c0.1,0,0.2,0,0.3,0.1c0.1,0.1,0.2,0.1,0.2,0.3c0.1,0.1,0.1,0.3,0.1,0.5s0,0.4,0,0.7c0,0.2,0,0.5,0,0.6s-0.1,0.3-0.1,0.4
		c-0.1,0.1-0.1,0.2-0.2,0.2c-0.1,0-0.2,0.1-0.3,0.1h-8.9v9.5h10.5c0.1,0,0.2,0,0.3,0.1c0.1,0.1,0.2,0.1,0.2,0.3
		c0.1,0.1,0.1,0.3,0.1,0.5C196.5,180.5,196.5,180.7,196.5,181z"/>
	<path class="st0" d="M219.9,181.9c0,0.1,0,0.2-0.1,0.3s-0.1,0.2-0.3,0.2s-0.3,0.1-0.6,0.1s-0.6,0-1,0c-0.4,0-0.6,0-0.9,0
		c-0.2,0-0.4-0.1-0.5-0.1c-0.1-0.1-0.2-0.1-0.3-0.3c-0.1-0.1-0.1-0.2-0.2-0.4l-2.4-6.3c-0.3-0.7-0.6-1.4-0.9-2
		c-0.3-0.6-0.7-1.1-1.1-1.5s-0.9-0.8-1.5-1s-1.3-0.4-2.1-0.4h-2.4v11.3c0,0.1,0,0.2-0.1,0.3s-0.2,0.1-0.3,0.2
		c-0.1,0-0.3,0.1-0.5,0.1c-0.2,0-0.5,0.1-0.9,0.1s-0.6,0-0.9-0.1c-0.2,0-0.4-0.1-0.5-0.1s-0.2-0.1-0.3-0.2s-0.1-0.2-0.1-0.3v-24.6
		c0-0.5,0.1-0.9,0.4-1.1s0.6-0.3,0.9-0.3h5.6c0.7,0,1.2,0,1.7,0.1c0.4,0,0.8,0.1,1.2,0.1c1,0.2,1.9,0.5,2.7,0.8s1.4,0.9,2,1.5
		s0.9,1.3,1.2,2c0.3,0.8,0.4,1.6,0.4,2.5c0,0.9-0.1,1.7-0.4,2.4s-0.6,1.3-1,1.9c-0.5,0.5-1,1-1.6,1.4s-1.3,0.7-2.1,1
		c0.4,0.2,0.8,0.4,1.2,0.7c0.4,0.3,0.7,0.6,1,1.1c0.3,0.4,0.6,0.9,0.9,1.4s0.5,1.1,0.8,1.8l2.4,5.8c0.2,0.5,0.3,0.8,0.4,1
		C219.9,181.6,219.9,181.8,219.9,181.9z M214.6,163.3c0-1-0.2-1.9-0.7-2.6c-0.5-0.7-1.2-1.2-2.3-1.5c-0.3-0.1-0.7-0.2-1.2-0.2
		s-1-0.1-1.7-0.1h-3v8.9h3.4c0.9,0,1.7-0.1,2.4-0.3c0.7-0.2,1.2-0.5,1.7-0.9c0.5-0.4,0.8-0.9,1-1.4
		C214.5,164.5,214.6,163.9,214.6,163.3z"/>
	<path class="st0" d="M239.8,181c0,0.2,0,0.5,0,0.6c0,0.2-0.1,0.3-0.1,0.5s-0.1,0.2-0.2,0.3c-0.1,0.1-0.2,0.1-0.3,0.1h-12.7
		c-0.3,0-0.6-0.1-0.9-0.3s-0.4-0.6-0.4-1.1v-23.7c0-0.5,0.1-0.9,0.4-1.1s0.6-0.3,0.9-0.3H239c0.1,0,0.2,0,0.3,0.1
		c0.1,0.1,0.2,0.1,0.2,0.3s0.1,0.3,0.1,0.5s0.1,0.4,0.1,0.7c0,0.2,0,0.5-0.1,0.6c0,0.2-0.1,0.3-0.1,0.5c-0.1,0.1-0.1,0.2-0.2,0.3
		c-0.1,0.1-0.2,0.1-0.3,0.1h-10.4v8.3h8.9c0.1,0,0.2,0,0.3,0.1c0.1,0.1,0.2,0.1,0.2,0.3c0.1,0.1,0.1,0.3,0.1,0.5s0,0.4,0,0.7
		c0,0.2,0,0.5,0,0.6s-0.1,0.3-0.1,0.4c-0.1,0.1-0.1,0.2-0.2,0.2c-0.1,0-0.2,0.1-0.3,0.1h-8.9v9.5h10.5c0.1,0,0.2,0,0.3,0.1
		c0.1,0.1,0.2,0.1,0.2,0.3c0.1,0.1,0.1,0.3,0.1,0.5C239.8,180.5,239.8,180.7,239.8,181z"/>
</g>
<path class="st0" d="M384,1c8.3,0,15,6.7,15,15v268c0,8.3-6.7,15-15,15H16c-8.3,0-15-6.7-15-15V16C1,7.7,7.7,1,16,1H384 M384,0H16
	C7.2,0,0,7.2,0,16v268c0,8.8,7.2,16,16,16h368c8.8,0,16-7.2,16-16V16C400,7.2,392.8,0,384,0L384,0z"/>
<path class="st0" d="M360.5,271.5H347v-1h13.5V271.5z M334.9,271.5h-12v-1h12V271.5z M310.8,271.5h-12v-1h12V271.5z M286.8,271.5
	h-12v-1h12V271.5z M262.7,271.5h-12v-1h12V271.5z M238.6,271.5h-12v-1h12V271.5z M214.5,271.5h-12v-1h12V271.5z M190.4,271.5h-12v-1
	h12V271.5z M166.3,271.5h-12v-1h12V271.5z M142.3,271.5h-12v-1h12V271.5z M118.2,271.5h-12v-1h12V271.5z M94.1,271.5h-12v-1h12
	V271.5z M70,271.5H58v-1h12V271.5z M45.9,271.5h-2.5c-3.6,0-6.5-2.9-6.5-6.5v-0.1h1v0.1c0,3,2.5,5.5,5.5,5.5h2.5V271.5z
	 M365.5,262.3h-1v-12h1V262.3z M37.9,252.8h-1v-12h1V252.8z M365.5,238.2h-1v-12h1V238.2z M37.9,228.8h-1v-12h1V228.8z M365.5,214.1
	h-1v-12h1V214.1z M37.9,204.7h-1v-12h1V204.7z M365.5,190.1h-1v-12h1V190.1z M37.9,180.6h-1v-12h1V180.6z M365.5,166h-1v-12h1V166z
	 M37.9,156.5h-1v-12h1V156.5z M365.5,141.9h-1v-12h1V141.9z M37.9,132.4h-1v-12h1V132.4z M365.5,117.8h-1v-12h1V117.8z M37.9,108.3
	h-1v-12h1V108.3z M365.5,93.7h-1v-12h1V93.7z M37.9,84.3h-1v-12h1V84.3z M365.5,69.7h-1v-12h1V69.7z M37.9,60.2h-1v-12h1V60.2z
	 M365.5,45.6h-1v-12h1V45.6z M37.9,36.1h-1v-2.7c0-3.6,2.9-6.5,6.5-6.5l0,1c-3,0-5.5,2.5-5.5,5.5C37.9,33.4,37.9,36.1,37.9,36.1z
	 M356.5,27.9h-12v-1h12V27.9z M332.4,27.9h-12v-1h12V27.9z M308.3,27.9h-12v-1h12V27.9z M284.2,27.9h-12v-1h12V27.9z M260.1,27.9
	h-12v-1h12V27.9z M236.1,27.9h-12v-1h12V27.9z M212,27.9h-12v-1h12V27.9z M187.9,27.9h-12v-1h12V27.9z M163.8,27.9h-12v-1h12V27.9z
	 M139.7,27.9h-12v-1h12L139.7,27.9L139.7,27.9z M115.7,27.9h-12v-1h12V27.9z M91.6,27.9h-12v-1h12V27.9z M67.5,27.9h-12v-1h12V27.9z
	"/>
</svg>
