<svg xmlns="http://www.w3.org/2000/svg" viewBox="0 0 50 29.79"><defs><style>.cls-1{fill:#f15a24;}.cls-2{fill:#b3b3b3;}</style></defs><g id="圖層_2" data-name="圖層 2"><g id="圖層_2-2" data-name="圖層 2"><path class="cls-1" d="M8.21,29H5.6A3,3,0,0,1,2.52,26V17.52L0,15.18v-.44l2.52-2.32V4.91A3,3,0,0,1,5.6,1.84H8.21V3.65c-.13,0-.37,0-.7,0l-.77,0c-1.41,0-2.12.52-2.12,1.56v7a2.24,2.24,0,0,1-.73,1.65L2.37,15l1.52,1.18a2.24,2.24,0,0,1,.73,1.64v7.93c0,1,.71,1.55,2.12,1.55l.77,0,.7,0Z"/><path class="cls-1" d="M50,15.18l-2.52,2.34V26A3,3,0,0,1,44.4,29H41.79V27.22l.7,0,.77,0c1.42,0,2.13-.52,2.13-1.55V17.79a2.25,2.25,0,0,1,.74-1.64L47.63,15l-1.5-1.19a2.25,2.25,0,0,1-.74-1.65v-7q0-1.56-2.13-1.56l-.77,0c-.34,0-.57,0-.7,0V1.84H44.4a3,3,0,0,1,3.08,3.07v7.51L50,14.74Z"/><path class="cls-2" d="M25.42,29.79H25a14.81,14.81,0,0,1-10.41-4.65.93.93,0,0,1,1.36-1.28,13,13,0,0,0,18.42.51.93.93,0,0,1,1.28,1.36A14.79,14.79,0,0,1,25.42,29.79Z"/><path class="cls-2" d="M15.26,25.42a1,1,0,0,1-.68-.29,14.91,14.91,0,0,1,.59-21.06.93.93,0,1,1,1.28,1.35,13,13,0,0,0-.51,18.43.94.94,0,0,1-.68,1.57Z"/><path class="cls-2" d="M35.56,6.23a.94.94,0,0,1-.68-.29,13,13,0,0,0-18.43-.52.93.93,0,0,1-1.28-1.35,14.91,14.91,0,0,1,21.06.59A.92.92,0,0,1,36.2,6,.93.93,0,0,1,35.56,6.23Z"/><path class="cls-2" d="M25.41,23.27h-.24A8.38,8.38,0,0,1,19.65,8.8a8.38,8.38,0,1,1,5.76,14.47Zm0-14.89a6.49,6.49,0,1,0,4.74,2A6.5,6.5,0,0,0,25.41,8.38Z"/><path class="cls-2" d="M36.52,15.82H32.86a.93.93,0,0,1,0-1.86h3.66a.93.93,0,0,1,0,1.86Z"/></g></g></svg>